<svg width="135" height="32" viewBox="0 0 135 32" fill="none" xmlns="http://www.w3.org/2000/svg">
<rect width="32" height="32" rx="6" fill="black"/>
<g clip-path="url(#clip0_745_2193)">
<path d="M19.4255 18.7648C18.858 18.1973 17.8888 18.599 17.8888 19.4015L17.8888 20.9998L11.6388 20.9998C10.0305 20.9998 8.72217 19.6915 8.72217 18.0832L8.72217 13.0832C8.72217 12.3932 8.163 11.8332 7.47217 11.8332C6.78133 11.8332 6.22217 12.3932 6.22217 13.0832L6.22217 18.0832C6.22217 21.0698 8.65217 23.4998 11.6388 23.4998L17.8888 23.4998L17.8888 25.0982C17.8888 25.8998 18.8588 26.3015 19.4255 25.7348L22.1263 22.8873C22.478 22.5357 22.478 21.9657 22.1263 21.614L19.4255 18.7665L19.4255 18.7648Z" fill="white"/>
<path d="M12.5203 13.2346C13.0878 13.8021 14.057 13.4005 14.057 12.598L14.057 10.9996L20.307 10.9996C21.9153 10.9996 23.2236 12.308 23.2236 13.9163L23.2236 18.9163C23.2236 19.6063 23.7828 20.1663 24.4736 20.1663C25.1645 20.1663 25.7236 19.6063 25.7236 18.9163L25.7236 13.9163C25.7236 10.9296 23.2936 8.49964 20.307 8.49964L14.057 8.49964L14.057 6.90131C14.057 6.09964 13.087 5.69797 12.5203 6.26464L9.81947 9.11214C9.4678 9.46381 9.4678 10.0338 9.81947 10.3855L12.5203 13.233L12.5203 13.2346Z" fill="white"/>
</g>
<g clip-path="url(#clip1_745_2193)">
<path d="M49.415 22.212L46.5459 17.1445H45.3163V22.212H42.708V9.20793H47.5892C48.5952 9.20793 49.4522 9.38803 50.1602 9.74822C50.8682 10.096 51.396 10.5742 51.7438 11.1828C52.104 11.7789 52.2841 12.4496 52.2841 13.1949C52.2841 14.0519 52.0357 14.8281 51.5389 15.5237C51.042 16.2068 50.303 16.6788 49.3218 16.9396L52.4331 22.212H49.415ZM45.3163 15.1883H47.496C48.204 15.1883 48.7319 15.0206 49.0796 14.6853C49.4274 14.3375 49.6013 13.8593 49.6013 13.2507C49.6013 12.6546 49.4274 12.195 49.0796 11.8721C48.7319 11.5367 48.204 11.3691 47.496 11.3691H45.3163V15.1883Z" fill="#333333"/>
<path fill-rule="evenodd" clip-rule="evenodd" d="M49.0022 22.92L46.1331 17.8525H46.0242V22.92H42V8.5H47.5891C48.6759 8.5 49.6474 8.6941 50.4767 9.115C51.2903 9.51557 51.9283 10.0826 52.3541 10.824C52.7827 11.5365 52.992 12.3329 52.992 13.1949C52.992 14.199 52.6977 15.1192 52.1149 15.9352L52.1131 15.9376L52.1114 15.9401C51.6693 16.548 51.08 17.0041 50.3689 17.3211L53.6729 22.92H49.0022ZM49.3218 16.9396C49.5649 16.875 49.7931 16.7974 50.0065 16.7069C50.6543 16.432 51.1651 16.0376 51.5388 15.5237C52.0356 14.8282 52.284 14.0519 52.284 13.1949C52.284 12.4497 52.1039 11.779 51.7437 11.1828C51.396 10.5742 50.8681 10.096 50.1602 9.74824C49.4522 9.38805 48.5952 9.20796 47.5891 9.20796H42.708V22.212H45.3162V17.1445H46.5458L49.4149 22.212H52.4331L49.3218 16.9396ZM48.593 12.3864L48.5882 12.3817C48.4228 12.2222 48.1053 12.0771 47.496 12.0771H46.0242V14.4804H47.496C48.0998 14.4804 48.4171 14.3378 48.5837 14.18C48.7661 13.995 48.8933 13.7149 48.8933 13.2508C48.8933 12.7976 48.7662 12.5472 48.5979 12.3909L48.593 12.3864ZM49.0796 14.6853C48.7318 15.0207 48.204 15.1883 47.496 15.1883H45.3162V11.3691H47.496C48.204 11.3691 48.7318 11.5368 49.0796 11.8721C49.4274 12.195 49.6012 12.6546 49.6012 13.2508C49.6012 13.8594 49.4274 14.3376 49.0796 14.6853Z" fill="white"/>
<path d="M62.5608 16.8278C62.5608 17.2004 62.536 17.5358 62.4863 17.8339H54.9409C55.003 18.5791 55.2639 19.1628 55.7234 19.5851C56.183 20.0074 56.7481 20.2186 57.4188 20.2186C58.3876 20.2186 59.0769 19.8025 59.4868 18.9703H62.3C62.0019 19.964 61.4306 20.7837 60.586 21.4296C59.7414 22.063 58.7043 22.3797 57.4747 22.3797C56.4811 22.3797 55.5868 22.1624 54.7919 21.7276C54.0094 21.2805 53.3946 20.6533 52.9475 19.846C52.5128 19.0386 52.2954 18.1071 52.2954 17.0514C52.2954 15.9832 52.5128 15.0455 52.9475 14.2382C53.3822 13.4309 53.9908 12.8098 54.7733 12.3751C55.5557 11.9404 56.4562 11.7231 57.4747 11.7231C58.4559 11.7231 59.3315 11.9342 60.1016 12.3565C60.8841 12.7788 61.4865 13.3812 61.9087 14.1637C62.3435 14.9337 62.5608 15.8218 62.5608 16.8278ZM59.8594 16.0826C59.847 15.4119 59.6048 14.8778 59.1328 14.4804C58.6608 14.0705 58.0833 13.8656 57.4002 13.8656C56.7543 13.8656 56.2078 14.0643 55.7607 14.4618C55.326 14.8468 55.0589 15.3871 54.9596 16.0826H59.8594Z" fill="#333333"/>
<path fill-rule="evenodd" clip-rule="evenodd" d="M63.133 18.2624L63.1851 17.9503C63.2424 17.6061 63.2692 17.2308 63.2692 16.8278C63.2692 15.7193 63.0293 14.7103 62.529 13.8216C62.0417 12.9211 61.3414 12.2214 60.4404 11.7347C59.5547 11.2495 58.5603 11.0151 57.4751 11.0151C56.3532 11.0151 55.3313 11.2555 54.4299 11.7563C53.5261 12.2584 52.8218 12.9791 52.3246 13.9026C51.8258 14.8289 51.5879 15.8855 51.5879 17.0514C51.5879 18.2064 51.8264 19.2565 52.3246 20.1816L52.3266 20.1853L52.3286 20.189C52.8369 21.1068 53.5433 21.8293 54.4411 22.3423L54.4468 22.3456L54.4526 22.3488C55.3616 22.8459 56.3745 23.0877 57.4751 23.0877C58.8317 23.0877 60.0247 22.7359 61.0112 21.9959L61.0138 21.994L61.0165 21.992C61.9763 21.258 62.6365 20.314 62.9785 19.1738L63.2519 18.2624H63.133ZM60.102 12.3565C59.332 11.9342 58.4563 11.7231 57.4751 11.7231C56.4567 11.7231 55.5562 11.9405 54.7737 12.3752C53.9912 12.8099 53.3826 13.4309 52.9479 14.2382C52.5132 15.0455 52.2958 15.9833 52.2958 17.0514C52.2958 18.1071 52.5132 19.0387 52.9479 19.846C53.395 20.6533 54.0099 21.2805 54.7923 21.7277C55.5872 22.1624 56.4815 22.3797 57.4751 22.3797C58.7047 22.3797 59.7418 22.063 60.5864 21.4296C61.2213 20.9441 61.7018 20.3603 62.0279 19.6783C62.1356 19.453 62.2264 19.2171 62.3004 18.9704H59.4872C59.0773 19.8025 58.388 20.2186 57.4192 20.2186C56.7485 20.2186 56.1834 20.0075 55.7239 19.5852C55.4215 19.3073 55.2051 18.9595 55.0748 18.5419C55.0071 18.3248 54.9626 18.0888 54.9414 17.8339H62.4867C62.5364 17.5358 62.5612 17.2005 62.5612 16.8278C62.5612 15.8218 62.3439 14.9337 61.9092 14.1637C61.4869 13.3812 60.8845 12.7788 60.102 12.3565ZM55.83 18.5419C55.9247 18.7535 56.0511 18.9244 56.2029 19.0639C56.5215 19.3567 56.9115 19.5106 57.4192 19.5106C57.801 19.5106 58.0832 19.4294 58.297 19.3004C58.5089 19.1725 58.6977 18.971 58.8521 18.6575L58.9091 18.5419H55.83ZM58.6731 15.0185L58.669 15.0149C58.3382 14.7276 57.9302 14.5736 57.4006 14.5736C56.9132 14.5736 56.5382 14.7182 56.2315 14.9909L56.231 14.9913L56.2305 14.9917C56.1122 15.0965 56.0077 15.2225 55.9201 15.3747H58.9748C58.8989 15.2407 58.7993 15.1247 58.6772 15.0219L58.6731 15.0185ZM59.7453 15.3747C59.8169 15.5908 59.8551 15.8268 59.8598 16.0826H54.96C54.9968 15.8254 55.0564 15.5894 55.139 15.3747C55.2798 15.0087 55.4872 14.7044 55.7611 14.4618C56.2083 14.0643 56.7547 13.8656 57.4006 13.8656C58.0837 13.8656 58.6613 14.0705 59.1332 14.4804C59.4252 14.7262 59.6292 15.0243 59.7453 15.3747Z" fill="white"/>
<path d="M62.7715 17.0513C62.7715 15.9832 62.9888 15.0517 63.4236 14.2568C63.8583 13.4494 64.4606 12.8284 65.2307 12.3937C66.0008 11.9466 66.8826 11.723 67.8762 11.723C69.1555 11.723 70.2113 12.0459 71.0434 12.6918C71.888 13.3252 72.4531 14.2195 72.7388 15.3746H69.9256C69.7765 14.9275 69.5219 14.5797 69.1617 14.3313C68.814 14.0705 68.3793 13.94 67.8576 13.94C67.1124 13.94 66.5224 14.2133 66.0877 14.7598C65.653 15.2939 65.4356 16.0577 65.4356 17.0513C65.4356 18.0325 65.653 18.7964 66.0877 19.3429C66.5224 19.877 67.1124 20.144 67.8576 20.144C68.9133 20.144 69.6027 19.672 69.9256 18.7281H72.7388C72.4531 19.8459 71.888 20.734 71.0434 21.3922C70.1988 22.0505 69.1431 22.3797 67.8762 22.3797C66.8826 22.3797 66.0008 22.1623 65.2307 21.7276C64.4606 21.2805 63.8583 20.6594 63.4236 19.8645C62.9888 19.0572 62.7715 18.1195 62.7715 17.0513Z" fill="#333333"/>
<path fill-rule="evenodd" clip-rule="evenodd" d="M72.5087 19.4361C72.1899 20.2276 71.7016 20.8796 71.0439 21.3923C70.1993 22.0506 69.1436 22.3797 67.8767 22.3797C66.8831 22.3797 66.0012 22.1624 65.2311 21.7277C64.4611 21.2805 63.8587 20.6595 63.424 19.8646C62.9893 19.0573 62.7719 18.1196 62.7719 17.0514C62.7719 15.9833 62.9893 15.0517 63.424 14.2568C63.8587 13.4495 64.4611 12.8285 65.2311 12.3938C66.0012 11.9467 66.8831 11.7231 67.8767 11.7231C69.156 11.7231 70.2117 12.046 71.0439 12.6919C71.7071 13.1893 72.198 13.8476 72.5166 14.6667C72.6037 14.8907 72.6779 15.1267 72.7392 15.3747H69.926C69.777 14.9275 69.5224 14.5798 69.1622 14.3314C68.8144 14.0705 68.3797 13.9401 67.858 13.9401C67.1128 13.9401 66.5229 14.2134 66.0882 14.7599C65.6534 15.2939 65.4361 16.0578 65.4361 17.0514C65.4361 18.0326 65.6534 18.7965 66.0882 19.343C66.5229 19.877 67.1128 20.1441 67.858 20.1441C68.9138 20.1441 69.6031 19.6721 69.926 18.7282H72.7392C72.6761 18.9754 72.5992 19.2114 72.5087 19.4361ZM66.6397 18.8991C66.9276 19.2511 67.3074 19.4361 67.858 19.4361C68.2808 19.4361 68.5677 19.3423 68.7669 19.2059C68.9627 19.0719 69.1342 18.8555 69.2562 18.499L69.42 18.0202H73.6509L73.4251 18.9034C73.1039 20.1607 72.4572 21.1884 71.4791 21.9507C70.4884 22.7229 69.2713 23.0877 67.8767 23.0877C66.7765 23.0877 65.772 22.846 64.8831 22.3442L64.8794 22.3421L64.8757 22.3399C63.9918 21.8267 63.2984 21.1105 62.8028 20.2043L62.8017 20.2023L62.8007 20.2003C62.3019 19.274 62.064 18.2173 62.064 17.0514C62.064 15.8867 62.3014 14.835 62.8017 13.9192C63.2966 13.0009 63.9909 12.2819 64.8794 11.7794C65.7686 11.264 66.7745 11.0151 67.8767 11.0151C69.2763 11.0151 70.4929 11.37 71.4733 12.129C72.4624 12.8726 73.1074 13.9145 73.4265 15.2047L73.6436 16.0826H69.4158L69.2544 15.5985C69.15 15.2852 68.984 15.0685 68.7603 14.9142L68.7487 14.9062L68.7374 14.8977C68.5352 14.7461 68.258 14.6481 67.858 14.6481C67.3119 14.6481 66.9325 14.8356 66.6422 15.2006L66.6397 15.2037L66.6372 15.2068C66.3423 15.5691 66.144 16.1503 66.144 17.0514C66.144 17.9338 66.3395 18.5199 66.6397 18.8991Z" fill="white"/>
<path d="M78.472 22.3797C77.4784 22.3797 76.5841 22.1623 75.7892 21.7276C74.9943 21.2805 74.3671 20.6532 73.9075 19.8459C73.4604 19.0386 73.2368 18.1071 73.2368 17.0513C73.2368 15.9956 73.4666 15.0641 73.9261 14.2568C74.3981 13.4494 75.0378 12.8284 75.8451 12.3937C76.6524 11.9466 77.5529 11.723 78.5465 11.723C79.5401 11.723 80.4406 11.9466 81.2479 12.3937C82.0552 12.8284 82.6887 13.4494 83.1482 14.2568C83.6202 15.0641 83.8562 15.9956 83.8562 17.0513C83.8562 18.1071 83.614 19.0386 83.1296 19.8459C82.6576 20.6532 82.0118 21.2805 81.192 21.7276C80.3847 22.1623 79.478 22.3797 78.472 22.3797ZM78.472 20.1067C78.944 20.1067 79.3849 19.995 79.7947 19.7714C80.217 19.5354 80.5524 19.1876 80.8008 18.7281C81.0492 18.2685 81.1734 17.7096 81.1734 17.0513C81.1734 16.0701 80.9126 15.3187 80.3909 14.7971C79.8817 14.263 79.2545 13.9959 78.5092 13.9959C77.764 13.9959 77.1368 14.263 76.6276 14.7971C76.1308 15.3187 75.8823 16.0701 75.8823 17.0513C75.8823 18.0325 76.1245 18.7902 76.6089 19.3243C77.1057 19.8459 77.7268 20.1067 78.472 20.1067Z" fill="#333333"/>
<path fill-rule="evenodd" clip-rule="evenodd" d="M75.4453 22.3468L75.4416 22.3447C74.5326 21.8334 73.8136 21.113 73.2917 20.1962L73.2897 20.1926L73.2877 20.189C72.7745 19.2624 72.5283 18.2097 72.5283 17.0514C72.5283 15.8899 72.7821 14.8346 73.3103 13.9066L73.3124 13.9031L73.3144 13.8995C73.85 12.9835 74.5827 12.27 75.5052 11.7724C76.4245 11.2641 77.4433 11.0151 78.546 11.0151C79.6487 11.0151 80.6674 11.2641 81.5867 11.7725C82.5097 12.2703 83.2374 12.9848 83.7609 13.9031C84.3027 14.8314 84.5636 15.8881 84.5636 17.0514C84.5636 18.218 84.295 19.2773 83.7382 20.2067C83.2015 21.1234 82.4623 21.8409 81.5305 22.3492L81.5288 22.3501L81.5271 22.351C80.6069 22.8465 79.583 23.0877 78.4714 23.0877C77.3709 23.0877 76.3579 22.8459 75.449 22.3488L75.4453 22.3468ZM83.1291 19.846C83.6135 19.0387 83.8557 18.1071 83.8557 17.0514C83.8557 15.9957 83.6197 15.0642 83.1477 14.2568C82.6881 13.4495 82.0547 12.8285 81.2474 12.3938C80.4401 11.9467 79.5396 11.7231 78.546 11.7231C77.5523 11.7231 76.6519 11.9467 75.8445 12.3938C75.0372 12.8285 74.3976 13.4495 73.9256 14.2568C73.4661 15.0642 73.2363 15.9957 73.2363 17.0514C73.2363 18.1071 73.4598 19.0387 73.907 19.846C74.3665 20.6533 74.9938 21.2805 75.7887 21.7277C76.5836 22.1624 77.4778 22.3797 78.4714 22.3797C79.4775 22.3797 80.3842 22.1624 81.1915 21.7277C82.0112 21.2805 82.6571 20.6533 83.1291 19.846ZM79.8838 15.2918L79.878 15.2857C79.5039 14.8933 79.0625 14.704 78.5087 14.704C77.9549 14.704 77.5136 14.8933 77.1394 15.2856M79.8838 15.2918L79.8898 15.2977ZM79.452 19.1517C79.7462 18.9865 79.9883 18.7414 80.1775 18.3915C80.3573 18.0589 80.4649 17.6221 80.4649 17.0514C80.4649 16.1939 80.2393 15.6473 79.8898 15.2977M79.452 19.1517C79.1482 19.3167 78.8251 19.3989 78.4714 19.3989C77.9156 19.3989 77.484 19.2142 77.1271 18.8424C76.8011 18.4792 76.5898 17.9159 76.5898 17.0514C76.5898 16.1853 76.8077 15.6341 77.1394 15.2857M76.6084 19.3243C76.124 18.7903 75.8818 18.0326 75.8818 17.0514C75.8818 16.0702 76.1302 15.3188 76.627 14.7971C77.1363 14.2631 77.7635 13.996 78.5087 13.996C79.2539 13.996 79.8812 14.2631 80.3904 14.7971C80.912 15.3188 81.1729 16.0702 81.1729 17.0514C81.1729 17.7097 81.0487 18.2686 80.8003 18.7282C80.5519 19.1877 80.2165 19.5355 79.7942 19.7715C79.3843 19.995 78.9434 20.1068 78.4714 20.1068C77.7262 20.1068 77.1052 19.846 76.6084 19.3243Z" fill="white"/>
<path d="M97.8266 11.7417C99.0934 11.7417 100.112 12.1329 100.882 12.9154C101.664 13.6855 102.056 14.7661 102.056 16.1571V22.212H99.4474V16.5111C99.4474 15.7038 99.2425 15.089 98.8326 14.6667C98.4227 14.232 97.8638 14.0146 97.1559 14.0146C96.4479 14.0146 95.8828 14.232 95.4605 14.6667C95.0506 15.089 94.8457 15.7038 94.8457 16.5111V22.212H92.2374V16.5111C92.2374 15.7038 92.0325 15.089 91.6226 14.6667C91.2127 14.232 90.6538 14.0146 89.9459 14.0146C89.2255 14.0146 88.6542 14.232 88.2319 14.6667C87.822 15.089 87.6171 15.7038 87.6171 16.5111V22.212H85.0088V11.8907H87.6171V13.139C87.9524 12.7043 88.3809 12.3627 88.9026 12.1143C89.4366 11.8659 90.0204 11.7417 90.6538 11.7417C91.4611 11.7417 92.1815 11.9156 92.815 12.2634C93.4484 12.5987 93.939 13.0831 94.2868 13.7165C94.6221 13.1204 95.1065 12.6422 95.74 12.282C96.3858 11.9218 97.0813 11.7417 97.8266 11.7417Z" fill="#333333"/>
<path fill-rule="evenodd" clip-rule="evenodd" d="M88.3245 12.4545C88.0546 12.6488 87.8187 12.877 87.6165 13.1391V11.8908H85.0083V22.2121H87.6165V16.5112C87.6165 15.7039 87.8215 15.0891 88.2313 14.6668C88.6536 14.232 89.225 14.0147 89.9453 14.0147C90.6533 14.0147 91.2122 14.232 91.6221 14.6668C92.0319 15.0891 92.2369 15.7039 92.2369 16.5112V22.2121H94.8452V16.5112C94.8452 15.7039 95.0501 15.0891 95.46 14.6668C95.8822 14.232 96.4474 14.0147 97.1553 14.0147C97.8633 14.0147 98.4222 14.232 98.8321 14.6668C99.2419 15.0891 99.4469 15.7039 99.4469 16.5112V22.2121H102.055V16.1572C102.055 14.7661 101.664 13.6856 100.881 12.9155C100.111 12.133 99.0929 11.7418 97.826 11.7418C97.0808 11.7418 96.3853 11.9219 95.7394 12.2821C95.3472 12.5051 95.0121 12.7734 94.7341 13.0869C94.5632 13.2797 94.4139 13.4896 94.2862 13.7166C94.1589 13.4846 94.0123 13.2726 93.8467 13.0806C93.56 12.7484 93.2159 12.476 92.8144 12.2634C92.181 11.9157 91.4606 11.7418 90.6533 11.7418C90.0199 11.7418 89.4361 11.866 88.902 12.1144C88.6948 12.2131 88.5023 12.3264 88.3245 12.4545ZM88.3245 11.6165V11.1829H84.3003V22.9201H88.3245V16.5112C88.3245 15.8183 88.4992 15.4073 88.7393 15.1599M88.3245 11.6165C88.4132 11.5668 88.5043 11.5196 88.5976 11.4752L88.6005 11.4738L88.6035 11.4725C89.238 11.1773 89.9246 11.0338 90.6533 11.0338C91.5636 11.0338 92.402 11.2305 93.1504 11.6403C93.5881 11.8726 93.9701 12.1664 94.2943 12.5189C94.6067 12.1876 94.973 11.9034 95.3895 11.6666L95.392 11.6652L95.3946 11.6638C96.1467 11.2443 96.9611 11.0338 97.826 11.0338C99.2489 11.0338 100.459 11.4789 101.382 12.4149C102.331 13.351 102.763 14.632 102.763 16.1572V22.9201H98.7389V16.5112C98.7389 15.8183 98.5642 15.4073 98.3241 15.1598L98.3205 15.1562L98.317 15.1524C98.0655 14.8857 97.7074 14.7227 97.1553 14.7227C96.6038 14.7227 96.2343 14.8857 95.9678 15.1601C95.7277 15.4075 95.5531 15.8185 95.5531 16.5112V22.9201H91.5289V16.5112C91.5289 15.8183 91.3542 15.4073 91.1141 15.1598L91.1105 15.1562L91.107 15.1524C90.8555 14.8857 90.4974 14.7227 89.9453 14.7227C89.3775 14.7227 89.0034 14.8881 88.7393 15.1599" fill="white"/>
<path d="M106.379 13.3811C106.714 12.9092 107.174 12.5179 107.757 12.2074C108.354 11.8845 109.031 11.723 109.788 11.723C110.67 11.723 111.465 11.9404 112.173 12.3751C112.893 12.8098 113.458 13.4308 113.868 14.2381C114.291 15.033 114.502 15.9584 114.502 17.0141C114.502 18.0698 114.291 19.0075 113.868 19.8273C113.458 20.6346 112.893 21.2618 112.173 21.709C111.465 22.1561 110.67 22.3797 109.788 22.3797C109.031 22.3797 108.36 22.2244 107.776 21.9139C107.205 21.6034 106.739 21.2122 106.379 20.7402V27.1304H103.771V11.8907H106.379V13.3811ZM111.838 17.0141C111.838 16.3931 111.707 15.859 111.446 15.4119C111.198 14.9523 110.863 14.6045 110.44 14.3686C110.03 14.1326 109.583 14.0146 109.099 14.0146C108.627 14.0146 108.18 14.1388 107.757 14.3872C107.348 14.6232 107.012 14.9709 106.751 15.4305C106.503 15.89 106.379 16.4303 106.379 17.0513C106.379 17.6724 106.503 18.2126 106.751 18.6722C107.012 19.1317 107.348 19.4857 107.757 19.7341C108.18 19.9701 108.627 20.0881 109.099 20.0881C109.583 20.0881 110.03 19.9639 110.44 19.7155C110.863 19.4671 111.198 19.1131 111.446 18.6536C111.707 18.194 111.838 17.6475 111.838 17.0141Z" fill="#333333"/>
<path fill-rule="evenodd" clip-rule="evenodd" d="M107.086 12.6422C106.808 12.8614 106.572 13.1078 106.378 13.3812V11.8908H103.769V27.1305H106.378V20.7403C106.58 21.0057 106.816 21.2456 107.086 21.46C107.295 21.6268 107.525 21.7781 107.775 21.914C108.359 22.2245 109.029 22.3797 109.787 22.3797C110.669 22.3797 111.464 22.1562 112.172 21.709C112.892 21.2619 113.457 20.6347 113.867 19.8274C114.289 19.0076 114.501 18.0699 114.501 17.0142C114.501 15.9584 114.289 15.0331 113.867 14.2382C113.457 13.4309 112.892 12.8099 112.172 12.3752C111.464 11.9405 110.669 11.7231 109.787 11.7231C109.029 11.7231 108.353 11.8846 107.756 12.2075C107.511 12.3381 107.287 12.483 107.086 12.6422ZM107.086 11.7778V11.1828H103.062V27.8385H107.086V22.3287C107.199 22.4013 107.316 22.4704 107.437 22.536L107.44 22.5375L107.443 22.539C108.143 22.9114 108.931 23.0877 109.787 23.0877C110.794 23.0877 111.721 22.8306 112.548 22.3091C113.384 21.7894 114.034 21.0626 114.498 20.1496C114.978 19.2164 115.209 18.1654 115.209 17.0142C115.209 15.8651 114.979 14.824 114.496 13.9119C114.031 12.9993 113.38 12.2777 112.54 11.7704C111.714 11.264 110.79 11.0151 109.787 11.0151C108.927 11.0151 108.132 11.1992 107.422 11.5837C107.306 11.6452 107.194 11.7099 107.086 11.7778ZM110.828 15.7587L110.822 15.7486C110.633 15.3974 110.389 15.1518 110.094 14.9866L110.09 14.9844L110.086 14.9822C109.786 14.8096 109.461 14.7226 109.098 14.7226C108.757 14.7226 108.433 14.8105 108.115 14.9975L108.113 14.9991L108.11 15.0008C107.823 15.1656 107.575 15.4141 107.37 15.7735C107.189 16.1107 107.086 16.5291 107.086 17.0514C107.086 17.5738 107.189 17.9921 107.37 18.3293C107.574 18.687 107.823 18.9442 108.113 19.1223C108.429 19.2967 108.754 19.3802 109.098 19.3802C109.454 19.3802 109.774 19.2907 110.072 19.1101L110.076 19.1077L110.08 19.1054C110.384 18.9268 110.631 18.6708 110.822 18.317L110.826 18.3106L110.83 18.3042C111.019 17.9705 111.129 17.5494 111.129 17.0142C111.129 16.4934 111.02 16.0877 110.834 15.7687L110.828 15.7587ZM107.756 19.7342C107.347 19.4858 107.011 19.1318 106.75 18.6723C106.502 18.2127 106.378 17.6724 106.378 17.0514C106.378 16.4304 106.502 15.8901 106.75 15.4306C107.011 14.971 107.347 14.6232 107.756 14.3873C108.179 14.1388 108.626 14.0146 109.098 14.0146C109.582 14.0146 110.029 14.1326 110.439 14.3686C110.861 14.6046 111.197 14.9524 111.445 15.4119C111.706 15.8591 111.836 16.3931 111.836 17.0142C111.836 17.6476 111.706 18.1941 111.445 18.6536C111.197 19.1132 110.861 19.4672 110.439 19.7156C110.029 19.964 109.582 20.0882 109.098 20.0882C108.626 20.0882 108.179 19.9702 107.756 19.7342Z" fill="white"/>
<path d="M118.392 13.493C118.728 12.9465 119.163 12.518 119.697 12.2075C120.243 11.897 120.864 11.7417 121.56 11.7417V14.4804H120.87C120.051 14.4804 119.43 14.6729 119.007 15.0579C118.597 15.443 118.392 16.1137 118.392 17.07V22.212H115.784V11.8907H118.392V13.493Z" fill="#333333"/>
<path fill-rule="evenodd" clip-rule="evenodd" d="M119.101 12.6394C118.83 12.8818 118.594 13.1663 118.393 13.493V11.8908H115.785V22.2121H118.393V17.0701C118.393 16.1137 118.598 15.443 119.008 15.058C119.43 14.673 120.051 14.4805 120.871 14.4805H121.561V11.7418C121.315 11.7418 121.079 11.7611 120.853 11.7997C120.436 11.8706 120.051 12.0065 119.698 12.2075C119.483 12.3324 119.284 12.4764 119.101 12.6394ZM119.101 11.7457V11.1829H115.077V22.9201H119.101V17.0701C119.101 16.1851 119.296 15.7621 119.489 15.5774C119.735 15.356 120.156 15.1884 120.871 15.1884H122.269V11.0338H121.561C120.756 11.0338 120.012 11.2146 119.348 11.592L119.345 11.5937L119.342 11.5955C119.26 11.6432 119.179 11.6933 119.101 11.7457Z" fill="white"/>
<path d="M133.25 11.8906L126.86 27.0931H124.084L126.32 21.9511L122.184 11.8906H125.109L127.773 19.1006L130.474 11.8906H133.25Z" fill="#333333"/>
<path fill-rule="evenodd" clip-rule="evenodd" d="M134.316 11.1829L127.331 27.8013H123.004L125.551 21.9436L121.127 11.1829H125.602L127.778 17.0707L129.984 11.1829H134.316ZM127.773 19.1008L125.109 11.8908H122.184L126.32 21.9513L124.084 27.0933H126.86L133.25 11.8908H130.475L127.773 19.1008Z" fill="white"/>
</g>
<defs>
<clipPath id="clip0_745_2193">
<rect width="20" height="20" fill="white" transform="translate(6 26) rotate(-90)"/>
</clipPath>
<clipPath id="clip1_745_2193">
<rect width="93" height="17" fill="white" transform="translate(42 8.5)"/>
</clipPath>
</defs>
</svg>
